<svg xmlns="http://www.w3.org/2000/svg" xmlns:xlink="http://www.w3.org/1999/xlink" viewBox="0 0 1024 1024"><defs><style>.cls-1{fill:#fff;}.cls-10,.cls-11,.cls-12,.cls-13,.cls-14,.cls-15,.cls-16,.cls-17,.cls-18,.cls-19,.cls-2,.cls-20,.cls-21,.cls-3,.cls-4,.cls-5,.cls-6,.cls-7,.cls-8,.cls-9{stroke-linecap:round;stroke-linejoin:round;stroke-width:22px;}.cls-2{stroke:url(#linear-gradient);}.cls-3{stroke:url(#linear-gradient-2);}.cls-4{stroke:url(#linear-gradient-3);}.cls-5{stroke:url(#linear-gradient-4);}.cls-6{stroke:url(#linear-gradient-5);}.cls-7{stroke:url(#linear-gradient-6);}.cls-8{stroke:url(#linear-gradient-7);}.cls-9{stroke:url(#linear-gradient-8);}.cls-10{stroke:url(#linear-gradient-9);}.cls-11{stroke:url(#linear-gradient-10);}.cls-12{stroke:url(#linear-gradient-11);}.cls-13{stroke:url(#linear-gradient-12);}.cls-14{stroke:url(#linear-gradient-13);}.cls-15{stroke:url(#linear-gradient-14);}.cls-16{stroke:url(#linear-gradient-15);}.cls-17{stroke:url(#linear-gradient-16);}.cls-18{stroke:url(#linear-gradient-17);}.cls-19{stroke:url(#linear-gradient-18);}.cls-20{stroke:url(#linear-gradient-19);}.cls-21{stroke:url(#linear-gradient-20);}</style><linearGradient id="linear-gradient" x1="157.01" y1="289.79" x2="157.01" y2="230.62" gradientUnits="userSpaceOnUse"><stop offset="0" stop-color="#1b84ba"/><stop offset="0.99" stop-color="#1a81bd"/></linearGradient><linearGradient id="linear-gradient-2" x1="202.54" y1="363.08" x2="202.54" y2="244.76" gradientUnits="userSpaceOnUse"><stop offset="0" stop-color="#1f8cb4"/><stop offset="0.99" stop-color="#1c86b9"/></linearGradient><linearGradient id="linear-gradient-3" x1="248.07" y1="398.68" x2="248.07" y2="249.21" gradientUnits="userSpaceOnUse"><stop offset="0" stop-color="#2291ae"/><stop offset="0.99" stop-color="#1e89b6"/></linearGradient><linearGradient id="linear-gradient-4" x1="293.61" y1="390.3" x2="293.61" y2="260.98" gradientUnits="userSpaceOnUse"><stop offset="0" stop-color="#2394ab"/><stop offset="0.99" stop-color="#208eb2"/></linearGradient><linearGradient id="linear-gradient-5" x1="339.14" y1="404.44" x2="339.14" y2="275.64" gradientUnits="userSpaceOnUse"><stop offset="0" stop-color="#2292ae"/><stop offset="0.99" stop-color="#2598a7"/></linearGradient><linearGradient id="linear-gradient-6" x1="384.67" y1="421.71" x2="384.67" y2="275.64" gradientUnits="userSpaceOnUse"><stop offset="0" stop-color="#289da3"/><stop offset="0.99" stop-color="#2495aa"/></linearGradient><linearGradient id="linear-gradient-7" x1="430.2" y1="456.18" x2="430.2" y2="267.79" gradientUnits="userSpaceOnUse"><stop offset="0" stop-color="#2ba29e"/><stop offset="0.95" stop-color="#2599a6"/><stop offset="0.99" stop-color="#2598a7"/></linearGradient><linearGradient id="linear-gradient-8" x1="475.73" y1="500.76" x2="475.73" y2="238.47" gradientUnits="userSpaceOnUse"><stop offset="0" stop-color="#2da899"/><stop offset="0.74" stop-color="#289fa1"/><stop offset="0.99" stop-color="#269aa5"/></linearGradient><linearGradient id="linear-gradient-9" x1="475.73" y1="614.36" x2="475.73" y2="573.52" gradientUnits="userSpaceOnUse"><stop offset="0" stop-color="#31ac95"/><stop offset="0.99" stop-color="#31ae93"/></linearGradient><linearGradient id="linear-gradient-10" x1="521.26" y1="623.56" x2="521.26" y2="205.26" gradientUnits="userSpaceOnUse"><stop offset="0" stop-color="#33b28e"/><stop offset="0.53" stop-color="#2ea997"/><stop offset="0.99" stop-color="#279ca3"/></linearGradient><linearGradient id="linear-gradient-11" x1="566.79" y1="546.81" x2="566.79" y2="217.67" gradientUnits="userSpaceOnUse"><stop offset="0" stop-color="#32b18f"/><stop offset="0.64" stop-color="#2da898"/><stop offset="0.99" stop-color="#29a0a0"/></linearGradient><linearGradient id="linear-gradient-12" x1="566.79" y1="614.36" x2="566.79" y2="574.01" gradientUnits="userSpaceOnUse"><stop offset="0" stop-color="#34b58c"/><stop offset="0.99" stop-color="#34b38d"/></linearGradient><linearGradient id="linear-gradient-13" x1="612.33" y1="497.11" x2="612.33" y2="238.47" gradientUnits="userSpaceOnUse"><stop offset="0" stop-color="#33b28e"/><stop offset="0.78" stop-color="#2ea997"/><stop offset="0.99" stop-color="#2ca59b"/></linearGradient><linearGradient id="linear-gradient-14" x1="657.86" y1="483.2" x2="657.86" y2="252.71" gradientUnits="userSpaceOnUse"><stop offset="0" stop-color="#35b68d"/><stop offset="0.78" stop-color="#30ad94"/><stop offset="0.99" stop-color="#2ea997"/></linearGradient><linearGradient id="linear-gradient-15" x1="657.86" y1="567.93" x2="657.86" y2="519.1" gradientUnits="userSpaceOnUse"><stop offset="0" stop-color="#35b78a"/><stop offset="0.99" stop-color="#37b987"/></linearGradient><linearGradient id="linear-gradient-16" x1="703.39" y1="465.8" x2="703.39" y2="284.77" gradientUnits="userSpaceOnUse"><stop offset="0" stop-color="#35b789"/><stop offset="0.99" stop-color="#31ae92"/></linearGradient><linearGradient id="linear-gradient-17" x1="703.39" y1="594.27" x2="703.39" y2="528.29" gradientUnits="userSpaceOnUse"><stop offset="0" stop-color="#39be83"/><stop offset="0.99" stop-color="#38bb86"/></linearGradient><linearGradient id="linear-gradient-18" x1="748.92" y1="453.13" x2="748.92" y2="308.37" gradientUnits="userSpaceOnUse"><stop offset="0" stop-color="#37ba86"/><stop offset="0.99" stop-color="#33b38e"/></linearGradient><linearGradient id="linear-gradient-19" x1="748.92" y1="617.38" x2="748.92" y2="546.93" gradientUnits="userSpaceOnUse"><stop offset="0" stop-color="#3cc37e"/><stop offset="0.99" stop-color="#3ac081"/></linearGradient><linearGradient id="linear-gradient-20" x1="794.45" y1="414.12" x2="794.45" y2="355.59" gradientUnits="userSpaceOnUse"><stop offset="0" stop-color="#39bc86"/><stop offset="0.99" stop-color="#37ba89"/></linearGradient></defs><g id="Layer_2" data-name="Layer 2"><g id="Layer_1-2" data-name="Layer 1"><circle class="cls-1" cx="512" cy="512" r="512"/><path d="M464.37,762.08h3.31v34.7h-3.31Zm2.76,31.5h9.15q4.25,0,6.19-1.66a5.8,5.8,0,0,0,1.94-4.66v-.07a7.9,7.9,0,0,0-.73-3.54,5.06,5.06,0,0,0-2.27-2.28,8.69,8.69,0,0,0-4-.8h-10.3v-3.19h10.3a7,7,0,0,0,4.9-1.51,6.86,6.86,0,0,0-.15-9.07,8.17,8.17,0,0,0-5.39-1.52h-9.66v-3.2h10.39a11.63,11.63,0,0,1,5.42,1.14,7.53,7.53,0,0,1,3.26,3.25,10.83,10.83,0,0,1,1.08,5,8.46,8.46,0,0,1-.67,3.33,7,7,0,0,1-2,2.69,7.42,7.42,0,0,1-3.39,1.5,7.2,7.2,0,0,1,3.49,1.49,7.73,7.73,0,0,1,2.25,3,9.36,9.36,0,0,1,.78,3.82v.07a10.08,10.08,0,0,1-1.19,5,8.17,8.17,0,0,1-3.42,3.32,11,11,0,0,1-5.19,1.17H467.13Z"/><path d="M510.63,762.08h4l12.3,34.7h-3.67l-10.62-31.1L502,796.78h-3.67ZM504,785.16h17.55v3.2H504Z"/><path d="M539.49,762.08h3.31v34.7h-3.31Zm2.34,31.5h19.1v3.2h-19.1Z"/><path d="M578,796.78h-3.31v-34.7H578Z"/><path d="M265,725.91H253.91v-72l-23.25,49H224l-23.07-49v72H190.57V642.3h15.16L228,688.85l21.56-46.55H265Z"/><path d="M341.08,725.91H302.52V667.39h38.56v6.91H310.3v16h30.78v6.92H310.3V719h30.78Z"/><path d="M408,674.3H387.13v51.61h-7.78V674.3H358.44v-6.91H408Z"/><path d="M467.34,725.91H428.78V667.39h38.56v6.91H436.57v16h30.77v6.92H436.57V719h30.77Z"/><path d="M544.69,725.91h-7.78V675.48L520.63,709.8H516l-16.15-34.32v50.43h-7.27V667.39h10.61L518.78,700l15.1-32.58h10.81Z"/><path d="M617.43,707.91a17.14,17.14,0,0,1-1.65,7.7,15.55,15.55,0,0,1-4.44,5.51,20.51,20.51,0,0,1-7.25,3.69,38,38,0,0,1-10.05,1.1H573.29V667.39h17.33a70.31,70.31,0,0,1,9.59.47,19.53,19.53,0,0,1,6.1,2,10.91,10.91,0,0,1,4.68,4.35,13.08,13.08,0,0,1,1.45,6.34,11.8,11.8,0,0,1-2.12,7.1,15.42,15.42,0,0,1-5.66,4.7v.31a16.16,16.16,0,0,1,9.35,5.21A14.94,14.94,0,0,1,617.43,707.91Zm-13.09-26.37a8,8,0,0,0-.71-3.58,5.45,5.45,0,0,0-2.28-2.36,11,11,0,0,0-4.48-1.32c-1.75-.17-3.93-.25-6.52-.25h-9.28v16.9h10.07a35.66,35.66,0,0,0,5.81-.37,10.76,10.76,0,0,0,4-1.56,6.56,6.56,0,0,0,2.62-3A11.65,11.65,0,0,0,604.34,681.54Zm5,26.69a12.5,12.5,0,0,0-1.06-5.63,8.52,8.52,0,0,0-3.85-3.53,12.87,12.87,0,0,0-4.58-1.28,60.23,60.23,0,0,0-6.54-.3H581.07v21.78h10.3a54.26,54.26,0,0,0,8.37-.53,13,13,0,0,0,5.35-2,9.79,9.79,0,0,0,3.22-3.49A11,11,0,0,0,609.33,708.23Z"/><path d="M687.5,725.91h-8.29l-5.74-16.31H648.16l-5.74,16.31h-7.9l21.3-58.52H666.2Zm-16.43-23-10.26-28.73-10.3,28.73Z"/><path d="M753.92,725.91h-9.63l-27.75-52.35v52.35h-7.27V667.39h12.06l25.32,47.79V667.39h7.27Z"/><path d="M855.47,719.74a105.9,105.9,0,0,1-15,5.47,57.54,57.54,0,0,1-33.61-.36A36.88,36.88,0,0,1,793,716.76a36.36,36.36,0,0,1-8.93-13.62A53.21,53.21,0,0,1,781,684q0-20,11.71-31.64t32.14-11.59a65,65,0,0,1,14.58,1.71,78.62,78.62,0,0,1,16,5.81v13.2h-1q-1.74-1.35-5.06-3.54a43.3,43.3,0,0,0-15.3-6.54,48.85,48.85,0,0,0-11.14-1.15q-14,0-22.21,9t-8.17,24.4q0,16.23,8.53,25.24t23.25,9a55,55,0,0,0,10.75-1.07,50,50,0,0,0,9.41-2.75V693.63H822.06v-9.78h33.41Z"/><line class="cls-2" x1="157.01" y1="241.62" x2="157.01" y2="278.79"/><line class="cls-3" x1="202.54" y1="255.76" x2="202.54" y2="352.08"/><line class="cls-4" x1="248.07" y1="260.21" x2="248.07" y2="387.68"/><line class="cls-5" x1="293.61" y1="271.98" x2="293.61" y2="379.3"/><line class="cls-6" x1="339.14" y1="286.64" x2="339.14" y2="393.44"/><line class="cls-7" x1="384.67" y1="286.64" x2="384.67" y2="410.71"/><line class="cls-8" x1="430.2" y1="278.79" x2="430.2" y2="445.18"/><line class="cls-9" x1="475.73" y1="249.47" x2="475.73" y2="489.76"/><line class="cls-10" x1="475.73" y1="584.52" x2="475.73" y2="603.36"/><line class="cls-11" x1="521.26" y1="216.26" x2="521.26" y2="612.56"/><line class="cls-12" x1="566.79" y1="228.67" x2="566.79" y2="535.81"/><line class="cls-13" x1="566.79" y1="585.01" x2="566.79" y2="603.36"/><line class="cls-14" x1="612.33" y1="249.47" x2="612.33" y2="486.11"/><line class="cls-15" x1="657.86" y1="263.71" x2="657.86" y2="472.2"/><line class="cls-16" x1="657.86" y1="530.1" x2="657.86" y2="556.93"/><line class="cls-17" x1="703.39" y1="295.77" x2="703.39" y2="454.8"/><line class="cls-18" x1="703.39" y1="539.29" x2="703.39" y2="583.27"/><line class="cls-19" x1="748.92" y1="319.37" x2="748.92" y2="442.13"/><line class="cls-20" x1="748.92" y1="557.93" x2="748.92" y2="606.38"/><line class="cls-21" x1="794.45" y1="366.59" x2="794.45" y2="403.12"/></g></g></svg>